<?xml version="1.0" encoding="UTF-8" standalone="no"?>
<!-- Created with Inkscape (http://www.inkscape.org/) -->

<svg
   width="512"
   height="512"
   viewBox="0 0 135.46666 135.46667"
   version="1.1"
   id="svg5"
   sodipodi:docname="icon_record_continue_color.svg"
   inkscape:version="1.1.2 (0a00cf5339, 2022-02-04, custom)"
   xmlns:inkscape="http://www.inkscape.org/namespaces/inkscape"
   xmlns:sodipodi="http://sodipodi.sourceforge.net/DTD/sodipodi-0.dtd"
   xmlns="http://www.w3.org/2000/svg"
   xmlns:svg="http://www.w3.org/2000/svg">
  <sodipodi:namedview
     id="namedview7"
     pagecolor="#ffffff"
     bordercolor="#666666"
     borderopacity="1.0"
     inkscape:pageshadow="2"
     inkscape:pageopacity="0.0"
     inkscape:pagecheckerboard="0"
     inkscape:document-units="px"
     showgrid="false"
     units="px"
     width="512px"
     inkscape:zoom="1.3155765"
     inkscape:cx="115.5387"
     inkscape:cy="255.7814"
     inkscape:window-width="1920"
     inkscape:window-height="1030"
     inkscape:window-x="0"
     inkscape:window-y="0"
     inkscape:window-maximized="1"
     inkscape:current-layer="layer1"
     inkscape:lockguides="false"
     showguides="true">
    <inkscape:grid
       type="xygrid"
       id="grid2352" />
  </sodipodi:namedview>
  <defs
     id="defs2" />
  <g
     inkscape:label="Layer 1"
     inkscape:groupmode="layer"
     id="layer1">
    <path
       id="path2482"
       style="fill:#bf4040;fill-opacity:1;stroke:none;stroke-width:7.4291;stroke-linecap:round"
       d="m 67.733333,16.933333 a 50.799995,50.799995 0 0 0 -50.8,50.8 50.799995,50.799995 0 0 0 50.8,50.799997 50.799995,50.799995 0 0 0 50.799997,-50.799997 50.799995,50.799995 0 0 0 -50.799997,-50.8 z m 0,25.4 a 25.399998,25.399998 0 0 1 25.400004,25.4 25.399998,25.399998 0 0 1 -25.400004,25.400004 25.399998,25.399998 0 0 1 -25.4,-25.400004 25.399998,25.399998 0 0 1 25.4,-25.4 z" />
  </g>
</svg>
