<?xml version="1.0" encoding="UTF-8" standalone="no"?>
<!-- Created with Inkscape (http://www.inkscape.org/) -->

<svg
   width="512"
   height="512"
   viewBox="0 0 135.46666 135.46667"
   version="1.1"
   id="svg5"
   sodipodi:docname="icon_record_finished.svg"
   inkscape:version="1.1.2 (0a00cf5339, 2022-02-04)"
   xmlns:inkscape="http://www.inkscape.org/namespaces/inkscape"
   xmlns:sodipodi="http://sodipodi.sourceforge.net/DTD/sodipodi-0.dtd"
   xmlns="http://www.w3.org/2000/svg"
   xmlns:svg="http://www.w3.org/2000/svg">
  <sodipodi:namedview
     id="namedview7"
     pagecolor="#ffffff"
     bordercolor="#666666"
     borderopacity="1.0"
     inkscape:pageshadow="2"
     inkscape:pageopacity="0.0"
     inkscape:pagecheckerboard="0"
     inkscape:document-units="px"
     showgrid="false"
     units="px"
     width="512px"
     inkscape:zoom="1.3249068"
     inkscape:cx="267.94337"
     inkscape:cy="255.86704"
     inkscape:window-width="1920"
     inkscape:window-height="1034"
     inkscape:window-x="0"
     inkscape:window-y="0"
     inkscape:window-maximized="1"
     inkscape:current-layer="layer1"
     inkscape:lockguides="false"
     showguides="true">
    <inkscape:grid
       type="xygrid"
       id="grid2352" />
  </sodipodi:namedview>
  <defs
     id="defs2" />
  <g
     inkscape:label="Layer 1"
     inkscape:groupmode="layer"
     id="layer1">
    <path
       id="path2482"
       style="fill:#ffffff;fill-opacity:1;stroke:none;stroke-width:28.0785;stroke-linecap:round"
       d="M 256 64 A 191.99998 191.99998 0 0 0 64 256 A 191.99998 191.99998 0 0 0 256 448 A 191.99998 191.99998 0 0 0 448 256 A 191.99998 191.99998 0 0 0 256 64 z M 384.35742 207.6875 A 16.666667 16.666667 0 0 1 396.14258 212.56836 A 16.666667 16.666667 0 0 1 396.14258 236.13867 L 268.14062 364.14062 A 16.668334 16.668334 0 0 1 244.57031 364.14062 L 116.56836 236.13867 A 16.666667 16.666667 0 0 1 116.56836 212.56836 A 16.666667 16.666667 0 0 1 128.35547 207.68945 A 16.666667 16.666667 0 0 1 140.13867 212.56836 L 256.35156 328.78125 L 372.57227 212.56836 A 16.666667 16.666667 0 0 1 384.35742 207.6875 z "
       transform="scale(0.26458333)" />
  </g>
</svg>
